<svg width="107" height="107" viewBox="0 0 107 107" fill="none" xmlns="http://www.w3.org/2000/svg">
<g style="mix-blend-mode:exclusion">
<path d="M80.25 47.8825V59.1175H26.75V58.5825C26.75 52.6732 31.5407 47.8825 37.45 47.8825H80.25Z" fill="url(#paint0_linear_744_51)"/>
<path d="M27.0176 62.3275H38.2526V82.6575H27.0176V62.3275Z" fill="url(#paint1_linear_744_51)"/>
<path d="M69.0149 62.3275H80.2499V82.6575H77.0399C72.6077 82.6575 69.0149 79.0647 69.0149 74.6325V62.3275Z" fill="url(#paint2_linear_744_51)"/>
<path d="M69.0149 24.3425H80.2499V44.6725H77.0399C72.6077 44.6725 69.0149 41.0797 69.0149 36.6475V24.3425Z" fill="url(#paint3_linear_744_51)"/>
<path d="M41.4624 70.3525C41.4624 65.9203 45.0552 62.3275 49.4874 62.3275H52.6974V72.4925H41.4624V70.3525Z" fill="url(#paint4_linear_744_51)"/>
<path d="M39.055 31.03C45.8508 31.03 51.36 36.5392 51.36 43.335V44.6725H26.75V43.335C26.75 36.5392 32.2592 31.03 39.055 31.03Z" fill="url(#paint5_linear_744_51)"/>
<path d="M54.3025 72.4925C54.3025 66.8785 58.8535 62.3275 64.4675 62.3275H65.805V82.6575H64.4675C58.8535 82.6575 54.3025 78.1065 54.3025 72.4925Z" fill="url(#paint6_linear_744_51)"/>
<path d="M54.3025 34.5075C54.3025 28.8935 58.8535 24.3425 64.4675 24.3425H65.805V44.6725H64.4675C58.8535 44.6725 54.3025 40.1215 54.3025 34.5075Z" fill="url(#paint7_linear_744_51)"/>
</g>
<defs>
<linearGradient id="paint0_linear_744_51" x1="53.5" y1="47.8825" x2="53.5" y2="59.1175" gradientUnits="userSpaceOnUse">
<stop stop-color="#F9F9F9"/>
<stop offset="1" stop-color="#E5E5E5"/>
</linearGradient>
<linearGradient id="paint1_linear_744_51" x1="27.0176" y1="72.4925" x2="38.2526" y2="72.4925" gradientUnits="userSpaceOnUse">
<stop stop-color="#F9F9F9"/>
<stop offset="1" stop-color="#E5E5E5"/>
</linearGradient>
<linearGradient id="paint2_linear_744_51" x1="69.0149" y1="72.4925" x2="80.2499" y2="72.4925" gradientUnits="userSpaceOnUse">
<stop stop-color="#F9F9F9"/>
<stop offset="1" stop-color="#E5E5E5"/>
</linearGradient>
<linearGradient id="paint3_linear_744_51" x1="69.0149" y1="34.5075" x2="80.2499" y2="34.5075" gradientUnits="userSpaceOnUse">
<stop stop-color="#F9F9F9"/>
<stop offset="1" stop-color="#E5E5E5"/>
</linearGradient>
<linearGradient id="paint4_linear_744_51" x1="41.4624" y1="67.41" x2="52.6974" y2="67.41" gradientUnits="userSpaceOnUse">
<stop stop-color="#F9F9F9"/>
<stop offset="1" stop-color="#E5E5E5"/>
</linearGradient>
<linearGradient id="paint5_linear_744_51" x1="39.055" y1="31.03" x2="39.055" y2="44.6725" gradientUnits="userSpaceOnUse">
<stop stop-color="#F9F9F9"/>
<stop offset="1" stop-color="#E5E5E5"/>
</linearGradient>
<linearGradient id="paint6_linear_744_51" x1="54.3025" y1="72.4925" x2="65.805" y2="72.4925" gradientUnits="userSpaceOnUse">
<stop stop-color="#F9F9F9"/>
<stop offset="1" stop-color="#E5E5E5"/>
</linearGradient>
<linearGradient id="paint7_linear_744_51" x1="54.3025" y1="34.5075" x2="65.805" y2="34.5075" gradientUnits="userSpaceOnUse">
<stop stop-color="#F9F9F9"/>
<stop offset="1" stop-color="#E5E5E5"/>
</linearGradient>
</defs>
</svg>
